<svg xmlns="http://www.w3.org/2000/svg" xmlns:xlink="http://www.w3.org/1999/xlink" width="500" zoomAndPan="magnify" viewBox="0 0 375 374.999991" height="500" preserveAspectRatio="xMidYMid meet" version="1.0"><defs><g/></defs><g fill="#000000" fill-opacity="1"><g transform="translate(130.420294, 225.167716)"><g><path d="M 7.585938 -75.085938 L 39.523438 -75.085938 L 39.523438 -89.582031 C 39.523438 -90.035156 39.183594 -90.601562 38.390625 -90.601562 L 7.585938 -90.601562 C 6.796875 -90.601562 6.34375 -90.035156 6.34375 -89.582031 L 6.34375 -76.105469 C 6.34375 -75.652344 6.796875 -75.085938 7.585938 -75.085938 Z M 22.308594 -59.570312 L 22.308594 -26.726562 C 22.308594 -26.726562 22.308594 -16.761719 12.457031 -16.761719 L 1.246094 -16.761719 C 0.566406 -16.761719 0 -16.308594 0 -15.742188 L 0 -1.019531 C 0 -0.566406 0.566406 0 1.246094 0 L 12.457031 0 C 12.457031 0 39.523438 0 39.523438 -26.726562 L 39.523438 -59.570312 Z M 22.308594 -59.570312 "/></g></g></g><g fill="#000000" fill-opacity="1"><g transform="translate(171.983046, 225.167716)"><g><path d="M 16.082031 -90.601562 L 1.246094 -90.601562 C 0.566406 -90.601562 0 -90.035156 0 -89.582031 L 0 -54.019531 L 17.328125 -54.019531 L 17.328125 -74.066406 C 37.03125 -75.085938 51.640625 -66.816406 51.640625 -45.300781 C 51.640625 -17.328125 28.3125 -16.195312 17.328125 -16.648438 L 17.328125 -36.578125 L 0 -36.578125 L 0 -1.019531 C 0 -0.566406 0.566406 0 1.246094 0 L 16.082031 0 C 38.617188 0 69.082031 -6.570312 69.082031 -45.300781 C 69.082031 -85.503906 38.164062 -90.601562 16.082031 -90.601562 Z M 16.082031 -90.601562 "/></g></g></g></svg>